<?xml version="1.0" encoding="UTF-8"?>
<svg version="1.1" xmlns="http://www.w3.org/2000/svg" width="137" height="150">
<path d="M0 0 C2.56713867 1.77124023 2.56713867 1.77124023 5.23046875 4.37109375 C5.73265427 4.85420517 6.23483978 5.33731659 6.75224304 5.83506775 C8.51660965 7.54184195 10.25750072 9.27091812 12 11 C13.40876953 12.37478193 14.81848678 13.74859319 16.22900391 15.12158203 C20.14346184 18.94474621 24.02780584 22.79706124 27.90161133 26.66137695 C30.31861951 29.06859472 32.74611239 31.46491566 35.17382812 33.86132812 C36.7376363 35.41861122 38.30080963 36.97653214 39.86328125 38.53515625 C40.57696365 39.23649185 41.29064606 39.93782745 42.0259552 40.66041565 C52.7207144 51.40227197 59.97895284 63.13155523 60.3125 78.5625 C60.1796815 91.27323081 55.50925151 100.99855556 46.93359375 110.22265625 C36.58741876 120.12463052 25.40440999 122.50227999 11.5625 122.27734375 C-3.71769894 121.64694145 -14.32639676 111.1609299 -24.59765625 100.94140625 C-25.68324854 99.86802073 -26.76898005 98.794776 -27.85484314 97.72166443 C-30.11335905 95.4854722 -32.36547494 93.24304783 -34.61401367 90.99682617 C-37.49233916 88.12381653 -40.39311006 85.27464517 -43.29988956 82.43046665 C-45.54312998 80.22809166 -47.77039801 78.01008392 -49.99352837 75.7874279 C-51.05675653 74.72957261 -52.12570793 73.67743645 -53.20048714 72.63131905 C-54.69905298 71.16947842 -56.17379138 69.68703251 -57.64477539 68.19750977 C-58.48810928 67.36067154 -59.33144318 66.52383331 -60.20033264 65.66163635 C-62.5249268 62.22365417 -62.45247035 60.07073983 -62 56 C-60.4375 53.5625 -60.4375 53.5625 -58 52 C-54.00054505 51.56767484 -51.81297622 51.4459217 -48.44120789 53.743927 C-47.65196426 54.56077972 -46.86272064 55.37763245 -46.04956055 56.21923828 C-45.14139084 57.14084747 -44.23322113 58.06245667 -43.29753113 59.01199341 C-42.32720844 60.03138371 -41.356939 61.0508247 -40.38671875 62.0703125 C-39.36877901 63.11150315 -38.34895424 64.15085387 -37.3273468 65.18844604 C-34.64136823 67.92375869 -31.97531967 70.67760627 -29.31481934 73.43768311 C-25.07212753 77.83679851 -20.80895268 82.21556576 -16.5287571 86.57818222 C-15.0491569 88.09444664 -13.58381804 89.6235032 -12.11930847 91.15432739 C-4.06602514 99.4085506 3.66171675 106.03535086 15.5625 106.375 C23.99372761 106.31403038 29.50451939 103.96355964 35.875 98.5625 C41.95310459 91.23302094 44.82878375 84.61389155 44 75 C41.90430289 64.27496183 35.69031679 57.36464019 28.0703125 49.875 C27.43511688 49.24263428 26.79992126 48.61026855 26.14547729 47.95874023 C24.14335499 45.96768823 22.13434623 43.98375868 20.125 42 C18.75474385 40.63979067 17.38494791 39.27911757 16.015625 37.91796875 C12.68237208 34.60660142 9.34293006 31.30159651 6 28 C5.86851563 29.2684375 5.73703125 30.536875 5.6015625 31.84375 C5.29646524 34.78704119 5.03619441 35.94431629 3.375 38.5 C0.03033134 40.61242231 -2.11938517 40.55437355 -6 40 C-8.375 38.6875 -8.375 38.6875 -10 36 C-10.82201891 32.34967874 -10.90146192 28.73212976 -11 25 C-11.02578125 24.24509277 -11.0515625 23.49018555 -11.078125 22.71240234 C-11.15773623 20.1832531 -11.2084803 17.65504658 -11.25 15.125 C-11.2715918 14.30443115 -11.29318359 13.4838623 -11.31542969 12.63842773 C-11.34053195 7.93127161 -11.08127555 4.81420032 -8 1 C-5.13081737 -0.43459131 -3.18434119 -0.33385201 0 0 Z " fill="#00BFFF" transform="translate(62,28)"/>
<path d="M0 0 C8.15512634 6.41999307 15.52661556 13.7512043 22.84765625 21.08984375 C24.18793129 22.4286837 24.18793129 22.4286837 25.55528259 23.79457092 C27.89604411 26.13448646 30.23438066 28.47679254 32.57189941 30.81994629 C34.49088724 32.7415586 36.41360163 34.65942141 38.33628178 36.57733822 C40.63416328 38.87075209 42.92824852 41.16795539 45.22265625 43.46484375 C46.08294937 44.32311264 46.94324249 45.18138153 47.8296051 46.06565857 C48.61810349 46.85730911 49.40660187 47.64895966 50.21899414 48.46459961 C50.91497208 49.16137314 51.61095001 49.85814667 52.32801819 50.57603455 C54.47539542 52.89283387 54.90473521 54.0110639 55.25 57.1875 C54.9375 60.3125 54.9375 60.3125 53.375 62.6875 C50.01408634 64.92810911 47.92102382 64.71620714 43.9375 64.3125 C41.35420227 62.53060913 41.35420227 62.53060913 38.92700195 60.00146484 C38.00526688 59.0598349 37.0835318 58.11820496 36.13386536 57.14804077 C35.65236338 56.63932812 35.1708614 56.13061546 34.67476845 55.60648727 C33.15395458 54.0003868 31.61221085 52.41725384 30.06352234 50.83804321 C26.7722463 47.4737335 23.50991838 44.08216151 20.25 40.6875 C16.48562716 36.77107783 12.70963759 32.86697123 8.90819359 28.98649979 C7.40392797 27.4402195 5.91976175 25.87643867 4.43586731 24.31063843 C-3.31027271 16.28762033 -12.15658555 9.67565553 -23.6953125 9.21484375 C-31.69761468 9.54497173 -38.06856181 11.87063507 -44.0625 17.3125 C-49.59096918 24.05770492 -52.49239083 31.92704839 -51.90234375 40.69140625 C-50.16998264 50.36235418 -44.44878974 57.52736042 -37.57421875 64.19140625 C-36.5194207 65.23771461 -36.5194207 65.23771461 -35.4433136 66.30516052 C-33.22151715 68.50478055 -30.98615032 70.68998374 -28.75 72.875 C-27.23019573 74.37471518 -25.71130633 75.87535808 -24.19335938 77.37695312 C-20.49355565 81.03293833 -16.78152356 84.67607199 -13.0625 88.3125 C-12.93101563 87.0440625 -12.79953125 85.775625 -12.6640625 84.46875 C-12.35896524 81.52545881 -12.09869441 80.36818371 -10.4375 77.8125 C-7.09283134 75.70007769 -4.94311483 75.75812645 -1.0625 76.3125 C2.08446065 78.58782047 2.85468512 79.85064781 3.546875 83.7109375 C3.59328125 85.02320312 3.6396875 86.33546875 3.6875 87.6875 C3.71424805 88.3885083 3.74099609 89.0895166 3.76855469 89.81176758 C3.81886349 91.26271924 3.8594869 92.71403772 3.890625 94.16552734 C3.93528929 96.21124499 4.0136467 98.2561446 4.09375 100.30078125 C4.35743982 110.70554223 4.35743982 110.70554223 0.9375 115.3125 C-1.94157398 116.75203699 -3.86645484 116.6609128 -7.0625 116.3125 C-9.71777344 114.41239929 -9.71777344 114.41239929 -12.421875 111.71362305 C-12.92029907 111.2241066 -13.41872314 110.73459015 -13.93225098 110.23023987 C-15.57427642 108.60950041 -17.19350507 106.96794055 -18.8125 105.32421875 C-19.95445516 104.18376728 -21.09737478 103.04428081 -22.24121094 101.90571594 C-24.63799099 99.51326946 -27.02384689 97.1105715 -29.40234375 94.69995117 C-32.42986736 91.63289504 -35.48099557 88.59072274 -38.54071045 85.55581951 C-40.907728 83.20310079 -43.26230216 80.83822887 -45.61340332 78.46961403 C-46.73247151 77.34475086 -47.85503501 76.22335254 -48.98132324 75.10571861 C-59.62504261 64.51656189 -67.4533247 53.81115933 -67.5 38.1875 C-67.49165715 25.42988789 -62.80582961 15.35934542 -54.06640625 6.2265625 C-39.19049797 -8.03946006 -17.7423058 -9.77637258 0 0 Z " fill="#00BEFF" transform="translate(82.0625,5.6875)"/>
</svg>
